<svg xmlns="http://www.w3.org/2000/svg" viewBox="56 76 400 400" width="512" height="512">
  <circle cx="88.0" cy="404.0" r="9.4" fill="#6b3d21"/>
  <circle cx="112.0" cy="404.0" r="9.6" fill="#6b3d21"/>
  <circle cx="136.0" cy="404.0" r="9.8" fill="#6b3d21"/>
  <circle cx="160.0" cy="404.0" r="10.1" fill="#6b3d21"/>
  <circle cx="184.0" cy="404.0" r="10.3" fill="#6b3d21"/>
  <circle cx="208.0" cy="404.0" r="10.5" fill="#6b3d21"/>
  <circle cx="232.0" cy="404.0" r="10.8" fill="#6b3d21"/>
  <circle cx="256.0" cy="404.0" r="8.5" fill="#6b3d21"/>
  <circle cx="280.0" cy="404.0" r="8.7" fill="#6b3d21"/>
  <circle cx="304.0" cy="404.0" r="9.0" fill="#6b3d21"/>
  <circle cx="328.0" cy="404.0" r="9.2" fill="#6b3d21"/>
  <circle cx="352.0" cy="404.0" r="9.4" fill="#6b3d21"/>
  <circle cx="376.0" cy="404.0" r="9.7" fill="#6b3d21"/>
  <circle cx="400.0" cy="404.0" r="9.9" fill="#6b3d21"/>
  <circle cx="424.0" cy="404.0" r="10.1" fill="#6b3d21"/>
  <circle cx="100.0" cy="383.2" r="10.9" fill="#6b3d21"/>
  <circle cx="124.0" cy="383.2" r="9.0" fill="#6b3d21"/>
  <circle cx="148.0" cy="383.2" r="8.7" fill="#6b3d21"/>
  <circle cx="172.0" cy="383.2" r="9.5" fill="#6b3d21"/>
  <circle cx="196.0" cy="383.2" r="10.7" fill="#6b3d21"/>
  <circle cx="220.0" cy="383.2" r="10.0" fill="#6b3d21"/>
  <circle cx="244.0" cy="383.2" r="10.5" fill="#6b3d21"/>
  <circle cx="268.0" cy="383.2" r="10.2" fill="#6b3d21"/>
  <circle cx="292.0" cy="383.2" r="9.0" fill="#6b3d21"/>
  <circle cx="316.0" cy="383.2" r="9.5" fill="#6b3d21"/>
  <circle cx="340.0" cy="383.2" r="8.8" fill="#6b3d21"/>
  <circle cx="364.0" cy="383.2" r="9.9" fill="#6b3d21"/>
  <circle cx="388.0" cy="383.2" r="10.8" fill="#6b3d21"/>
  <circle cx="412.0" cy="383.2" r="10.5" fill="#6b3d21"/>
  <circle cx="112.0" cy="362.4" r="10.5" fill="#8a522b"/>
  <circle cx="136.0" cy="362.4" r="9.2" fill="#8a522b"/>
  <circle cx="160.0" cy="362.4" r="8.9" fill="#8a522b"/>
  <circle cx="184.0" cy="362.4" r="10.4" fill="#8a522b"/>
  <circle cx="208.0" cy="362.4" r="10.0" fill="#8a522b"/>
  <circle cx="232.0" cy="362.4" r="9.0" fill="#8a522b"/>
  <circle cx="256.0" cy="362.4" r="9.3" fill="#8a522b"/>
  <circle cx="280.0" cy="362.4" r="10.5" fill="#8a522b"/>
  <circle cx="304.0" cy="362.4" r="9.5" fill="#8a522b"/>
  <circle cx="328.0" cy="362.4" r="9.1" fill="#8a522b"/>
  <circle cx="352.0" cy="362.4" r="10.6" fill="#8a522b"/>
  <circle cx="376.0" cy="362.4" r="10.3" fill="#8a522b"/>
  <circle cx="400.0" cy="362.4" r="9.0" fill="#8a522b"/>
  <circle cx="124.0" cy="341.6" r="10.7" fill="#a86b3a"/>
  <circle cx="148.0" cy="341.6" r="10.1" fill="#a86b3a"/>
  <circle cx="172.0" cy="341.6" r="9.2" fill="#a86b3a"/>
  <circle cx="196.0" cy="341.6" r="10.4" fill="#a86b3a"/>
  <circle cx="220.0" cy="341.6" r="9.5" fill="#a86b3a"/>
  <circle cx="244.0" cy="341.6" r="10.0" fill="#a86b3a"/>
  <circle cx="268.0" cy="341.6" r="11.0" fill="#a86b3a"/>
  <circle cx="292.0" cy="341.6" r="9.5" fill="#a86b3a"/>
  <circle cx="316.0" cy="341.6" r="10.0" fill="#a86b3a"/>
  <circle cx="340.0" cy="341.6" r="9.1" fill="#a86b3a"/>
  <circle cx="364.0" cy="341.6" r="10.3" fill="#a86b3a"/>
  <circle cx="388.0" cy="341.6" r="9.4" fill="#a86b3a"/>
  <circle cx="136.0" cy="320.9" r="10.4" fill="#a86b3a"/>
  <circle cx="160.0" cy="320.9" r="9.0" fill="#a86b3a"/>
  <circle cx="184.0" cy="320.9" r="9.2" fill="#a86b3a"/>
  <circle cx="208.0" cy="320.9" r="9.6" fill="#a86b3a"/>
  <circle cx="232.0" cy="320.9" r="9.6" fill="#a86b3a"/>
  <circle cx="256.0" cy="320.9" r="10.1" fill="#a86b3a"/>
  <circle cx="280.0" cy="320.9" r="9.9" fill="#a86b3a"/>
  <circle cx="304.0" cy="320.9" r="9.9" fill="#a86b3a"/>
  <circle cx="328.0" cy="320.9" r="10.3" fill="#a86b3a"/>
  <circle cx="352.0" cy="320.9" r="10.4" fill="#a86b3a"/>
  <circle cx="376.0" cy="320.9" r="9.1" fill="#a86b3a"/>
  <circle cx="172.0" cy="300.1" r="9.2" fill="#c4864c"/>
  <circle cx="196.0" cy="300.1" r="8.9" fill="#c4864c"/>
  <circle cx="220.0" cy="300.1" r="9.6" fill="#c4864c"/>
  <circle cx="244.0" cy="300.1" r="8.6" fill="#c4864c"/>
  <circle cx="268.0" cy="300.1" r="9.3" fill="#c4864c"/>
  <circle cx="292.0" cy="300.1" r="10.9" fill="#c4864c"/>
  <circle cx="316.0" cy="300.1" r="9.9" fill="#c4864c"/>
  <circle cx="340.0" cy="300.1" r="10.6" fill="#c4864c"/>
  <circle cx="184.0" cy="279.3" r="10.6" fill="#d9a066"/>
  <circle cx="208.0" cy="279.3" r="9.0" fill="#d9a066"/>
  <circle cx="232.0" cy="279.3" r="9.2" fill="#d9a066"/>
  <circle cx="256.0" cy="279.3" r="10.9" fill="#d9a066"/>
  <circle cx="280.0" cy="279.3" r="10.3" fill="#d9a066"/>
  <circle cx="304.0" cy="279.3" r="10.5" fill="#d9a066"/>
  <circle cx="328.0" cy="279.3" r="8.9" fill="#d9a066"/>
  <circle cx="244.0" cy="258.5" r="10.8" fill="#d9a066"/>
  <circle cx="268.0" cy="258.5" r="10.1" fill="#d9a066"/>
  <circle cx="254" cy="228.0" r="8" fill="#d9a066" opacity="1.00"/>
  <circle cx="258" cy="196.0" r="6.5" fill="#d9a066" opacity="0.80"/>
  <circle cx="254" cy="168.0" r="5" fill="#d9a066" opacity="0.60"/>
  <circle cx="258" cy="144.0" r="3.5" fill="#d9a066" opacity="0.40"/>
</svg>
